<?xml version="1.0" encoding="UTF-8"?>
<svg width="216px" height="175px" viewBox="0 0 216 175" version="1.1" xmlns="http://www.w3.org/2000/svg" xmlns:xlink="http://www.w3.org/1999/xlink">
    <title>Path</title>
    <g id="Page-1" stroke="none" stroke-width="1" fill="none" fill-rule="evenodd">
        <path d="M163.8452,1.02540685 C165.7912,0.911406855 167.8042,1.16190685 169.5472,2.16800685 C171.2892,3.17410685 172.5132,4.79200685 173.3882,6.53420685 C174.2672,8.28740685 174.8852,10.3492069 175.3282,12.5117069 C176.2132,16.8357069 176.4722,21.9699069 176.4472,26.8008069 C176.4452,27.2851069 176.4392,27.7675069 176.4312,28.2472069 C176.3192,34.9836069 178.4052,41.5726069 182.2002,47.1396069 L182.2002,47.1396069 C191.9932,61.5076069 192.9272,76.7210069 194.2202,90.7720069 C195.5252,104.960007 197.1832,118.052007 207.4362,129.863007 C210.5982,133.506007 212.6452,136.541007 213.8252,139.631007 C215.0232,142.767007 215.2472,145.748007 215.1152,149.119007 C214.8302,156.404007 209.4222,160.395007 203.5282,162.475007 C197.6232,164.558007 190.4272,165.073007 184.6702,165.073007 L184.6702,165.073007 C176.7712,165.073007 169.4552,168.812007 162.2002,171.937007 C159.7912,172.975007 157.3272,173.671007 154.8922,174.006007 C148.7012,174.858007 142.5282,173.377007 138.1492,168.998007 L138.1492,168.998007 C136.0062,166.855007 133.3302,165.073007 130.2992,165.073007 L83.6948,165.073007 C80.6646,165.073007 77.9893,166.854007 75.8467,168.997007 L75.8467,168.997007 C71.4679,173.376007 65.2953,174.858007 59.1036,174.006007 C56.0019,173.579007 52.8537,172.566007 49.8301,171.008007 C44.0485,168.027007 38.0055,165.073007 31.501,165.073007 L31.501,165.073007 C25.729,165.073007 18.4108,164.573007 12.4454,162.499007 C6.5081,160.435007 1,156.419007 1,149.015007 C1,145.095007 1.2132,142.087007 2.3975,139.092007 C3.5654,136.138007 5.5877,133.427007 8.6817,129.863007 C18.9345,118.052007 20.5933,104.960007 21.8985,90.7720069 C23.1912,76.7210069 24.1235,61.5078069 33.917,47.1396069 L33.917,47.1396069 C37.3955,42.0363069 39.2785,35.9821069 39.1048,29.8085069 C39.077,28.8202069 39.059,27.8145069 39.0538,26.8008069 C39.0285,21.9699069 39.2881,16.8357069 40.1729,12.5117069 C40.6154,10.3493069 41.2336,8.28830685 42.1133,6.53520685 C42.9877,4.79270685 44.2113,3.17420685 45.9541,2.16800685 C47.6967,1.16200685 49.7094,0.911606855 51.6553,1.02540685 C53.6136,1.14010685 55.7086,1.63490685 57.8028,2.33300685 C61.9899,3.72880685 66.5663,6.07150685 70.7373,8.50880685 L70.7373,8.50880685 C73.8,10.2984069 77.5136,10.5729069 80.8472,9.36070685 C89.7182,6.13510685 98.8982,4.48540685 108.0582,4.48540685 C117.1852,4.48540685 126.3312,6.12340685 135.1712,9.32540685 C138.3352,10.4717069 141.8582,10.2070069 144.7642,8.50880685 L144.7642,8.50880685 C148.9352,6.07160685 153.5112,3.72870685 157.6982,2.33300685 C159.7922,1.63500685 161.8862,1.14010685 163.8452,1.02540685 Z" id="Path" stroke="#979797" fill-rule="nonzero"></path>
    </g>
</svg>